<svg viewBox="0 0 773.97 109.12" xmlns="http://www.w3.org/2000/svg" xmlns:xlink="http://www.w3.org/1999/xlink" id="Layer_1" overflow="hidden"><defs/><path d="M739.64 70.09 720.2 18.93 703.2 18.93 732 88C729.39 93.88 726.65 95.83 722.2 95.83 718.943 95.7522 715.758 94.8545 712.94 93.22L707.59 104.97C712.569 107.772 718.197 109.214 723.91 109.15 735 109.15 741.13 103.93 746.61 89.83L774 18.93 757.53 18.93ZM635.11 87.84 650.9 87.84 650.9 49C650.9 38.29 657.3 31.89 666.43 31.89 675.83 31.89 681.18 38.03 681.18 48.74L681.18 87.84 697 87.84 697 43.84C697 27.92 688 17.48 672.46 17.48 661.76 17.48 655.36 23.09 650.92 29.48L650.92 18.93 635.11 18.93ZM585.11 77.84C577.54 77.84 571.67 74.06 571.67 67.4L571.67 67.14C571.67 59.96 577.67 55.66 587.85 55.66 593.197 55.6078 598.508 56.5365 603.52 58.4L603.52 63C603.52 71.75 595.52 77.75 585.11 77.75M580.68 89.24C591.25 89.24 598.43 84.8 603.12 79.24L603.12 87.85 618.52 87.85 618.52 47C618.52 38 616.18 30.69 611.09 25.73 606.26 20.73 598.56 18.03 588.24 18.03 579.259 17.8913 570.365 19.8103 562.24 23.64L566.41 36C572.68 33.39 578.41 31.69 586.13 31.69 597.22 31.69 603.22 36.92 603.22 46.69L603.22 48.38C597.241 46.4199 590.982 45.4505 584.69 45.51 567.85 45.51 556.24 52.83 556.24 67.7L556.24 68C556.24 81.83 567.72 89.27 580.65 89.27M511.78 75.57C501.08 75.57 491.68 66.7 491.68 53.51L491.68 53.25C491.68 40.07 501.08 31.25 511.78 31.25 522.48 31.25 531.49 39.99 531.49 53.3L531.49 53.56C531.49 67.14 522.62 75.62 511.78 75.62M476.28 108.77 492.07 108.77 492.07 77.14C496.9 83.53 504.07 89.28 515.57 89.28 531.88 89.28 547.57 76.36 547.57 53.51L547.57 53.25C547.57 30.25 531.78 17.49 515.57 17.49 504.34 17.49 497.16 23.23 492.07 30.41L492.07 18.93 476.28 18.93ZM354.45 87.84 370.24 87.84 370.24 49C370.24 38.42 376.24 31.89 384.99 31.89 393.74 31.89 398.99 37.89 398.99 48.6L398.99 87.84 414.78 87.84 414.78 49C414.78 37.9 420.91 31.89 429.53 31.89 438.41 31.89 443.53 37.77 443.53 48.74L443.53 87.84 459.32 87.84 459.32 43.84C459.32 27.01 450.18 17.48 435.17 17.48 424.73 17.48 417.42 22.31 411.94 29.62 408.29 22.31 401.24 17.48 391.31 17.48 380.75 17.48 374.74 23.22 370.31 29.36L370.31 18.93 354.45 18.93ZM304.45 75.57C292.18 75.57 283.45 65.57 283.45 53.51L283.45 53.25C283.45 41.25 291.54 31.33 304.2 31.33 316.6 31.33 325.35 41.33 325.35 53.51L325.35 53.77C325.35 65.65 317.26 75.57 304.46 75.57M304.2 89.4C325.48 89.4 341.14 73.09 341.14 53.51L341.14 53.25C341.14 33.54 325.61 17.49 304.46 17.49 283.31 17.49 267.65 33.81 267.65 53.49L267.65 53.75C267.65 73.34 283.19 89.38 304.2 89.38M233.62 89.38C247.06 89.38 255.02 84.03 261.81 76.47L252.28 67.07C247.28 72.16 241.84 75.55 234.4 75.55 222.26 75.55 213.77 65.76 213.77 53.49L213.77 53.23C213.77 41.23 222.26 31.31 233.77 31.31 241.6 31.31 246.69 34.83 251.52 39.92L261.44 29.35C254.91 22.35 246.81 17.47 233.9 17.47 213.15 17.47 198.01 33.92 198.01 53.47L198.01 53.73C197.732 73.1519 213.251 89.1216 232.673 89.3995 232.996 89.4041 233.318 89.4043 233.64 89.4M176.57 89C181.546 89.1413 186.467 87.9207 190.8 85.47L190.8 72.57C187.77 74.1312 184.408 74.9374 181 74.92 175.65 74.92 172.52 72.44 172.52 66.3L172.52 32.5 191.05 32.5 191.05 18.93 172.53 18.93 172.53 0 156.73 0 156.73 18.93 148 18.93 148 32.5 156.74 32.5 156.74 68.78C156.73 83.92 165 89 176.57 89M90.37 48.55C91.81 37.85 98.59 30.41 108.26 30.41 118.7 30.41 124.7 38.41 125.74 48.55ZM110.09 89.4C122.74 89.4 131.75 84.32 138.27 76.49L129 68.26C123.52 73.62 118 76.49 110.33 76.49 100.16 76.49 92.19 70.22 90.5 59L141.14 59C141.27 57.43 141.4 56 141.4 54.56 141.4 34.71 130.31 17.49 108.4 17.49 88.69 17.49 74.72 33.68 74.72 53.38L74.72 53.64C74.72 74.92 90.12 89.4 110.1 89.4M0 87.84 15.79 87.84 15.79 49C15.79 38.29 22.19 31.89 31.33 31.89 40.73 31.89 46.08 38.03 46.08 48.74L46.08 87.84 61.87 87.84 61.87 43.84C61.87 27.92 52.87 17.48 37.33 17.48 26.63 17.48 20.23 23.09 15.79 29.48L15.79 18.93 0 18.93Z" fill="#FFFFFF"/></svg>