<svg version="1.1" viewBox="0.000000 0.000000 100.600000 14.200000" xmlns="http://www.w3.org/2000/svg" xmlns:xlink="http://www.w3.org/1999/xlink" id="Layer_1" overflow="hidden"><g><path d=" M 96.099998 9.100000 L 93.599998 2.500000 L 91.400002 2.500000 L 95.099998 11.500000 C 94.800003 12.300000 94.400002 12.500000 93.800003 12.500000 C 93.400002 12.500000 93.000000 12.400000 92.599998 12.200000 L 91.900002 13.700000 C 92.500000 14.000000 93.199997 14.200000 94.000000 14.200000 C 95.400002 14.200000 96.199997 13.500000 96.900002 11.700000 L 100.500000 2.500000 L 98.400002 2.500000 L 96.099998 9.100000 Z M 82.500000 11.400000 L 84.599998 11.400000 L 84.599998 6.400000 C 84.599998 5.000000 85.400002 4.200000 86.599998 4.200000 C 87.800003 4.200000 88.500000 5.000000 88.500000 6.400000 L 88.500000 11.500000 L 90.599998 11.500000 L 90.599998 5.700000 C 90.599998 3.600000 89.400002 2.300000 87.400002 2.300000 C 86.000000 2.300000 85.199997 3.000000 84.599998 3.900000 L 84.599998 2.500000 L 82.500000 2.500000 L 82.500000 11.400000 Z M 76.000000 10.100000 C 75.000000 10.100000 74.300003 9.600000 74.300003 8.700000 L 74.300003 8.700000 C 74.300003 7.800000 75.099998 7.200000 76.400002 7.200000 C 77.199997 7.200000 77.900002 7.400000 78.400002 7.600000 L 78.400002 8.200000 C 78.400002 9.300000 77.400002 10.100000 76.000000 10.100000 M 75.400002 11.600000 C 76.800003 11.600000 77.699997 11.000000 78.300003 10.300000 L 78.300003 11.400000 L 80.300003 11.400000 L 80.300003 6.100000 C 80.300003 4.900000 80.000000 4.000000 79.300003 3.300000 C 78.699997 2.700000 77.699997 2.300000 76.300003 2.300000 C 75.000000 2.300000 74.000000 2.600000 73.000000 3.100000 L 73.500000 4.700000 C 74.300003 4.400000 75.099998 4.100000 76.099998 4.100000 C 77.500000 4.100000 78.300003 4.800000 78.300003 6.100000 L 78.300003 6.300000 C 77.699997 6.100000 77.000000 5.900000 76.000000 5.900000 C 73.800003 5.900000 72.300003 6.800000 72.300003 8.800000 L 72.300003 8.800000 C 72.300003 10.600000 73.800003 11.600000 75.400002 11.600000 M 66.500000 9.800000 C 65.099998 9.800000 63.900002 8.600000 63.900002 6.900000 L 63.900002 6.900000 C 63.900002 5.200000 65.099998 4.000000 66.500000 4.000000 C 67.900002 4.000000 69.099998 5.100000 69.099998 6.900000 L 69.099998 6.900000 C 69.000000 8.700000 67.900002 9.800000 66.500000 9.800000 M 61.900002 14.100000 L 64.000000 14.100000 L 64.000000 10.000000 C 64.599998 10.800000 65.599998 11.600000 67.099998 11.600000 C 69.199997 11.600000 71.300003 9.900000 71.300003 7.000000 L 71.300003 7.000000 C 71.300003 4.000000 69.199997 2.400000 67.099998 2.400000 C 65.599998 2.400000 64.699997 3.100000 64.000000 4.100000 L 64.000000 2.500000 L 61.900002 2.500000 L 61.900002 14.100000 Z M 46.000000 11.400000 L 48.099998 11.400000 L 48.099998 6.400000 C 48.099998 5.000000 48.900002 4.200000 50.000000 4.200000 C 51.099998 4.200000 51.799999 5.000000 51.799999 6.400000 L 51.799999 11.500000 L 53.900002 11.500000 L 53.900002 6.400000 C 53.900002 5.000000 54.700001 4.200000 55.799999 4.200000 C 57.000000 4.200000 57.599998 5.000000 57.599998 6.400000 L 57.599998 11.500000 L 59.700001 11.500000 L 59.700001 5.700000 C 59.700001 3.500000 58.500000 2.300000 56.599998 2.300000 C 55.200001 2.300000 54.299999 2.900000 53.599998 3.900000 C 53.099998 3.000000 52.200001 2.300000 50.900002 2.300000 C 49.500000 2.300000 48.700001 3.000000 48.200001 3.800000 L 48.200001 2.500000 L 46.000000 2.500000 L 46.000000 11.400000 Z M 39.599998 9.800000 C 38.000000 9.800000 36.900002 8.500000 36.900002 6.900000 L 36.900002 6.900000 C 36.900002 5.300000 38.000000 4.100000 39.599998 4.100000 C 41.200001 4.100000 42.299999 5.400000 42.299999 7.000000 L 42.299999 7.000000 C 42.299999 8.500000 41.200001 9.800000 39.599998 9.800000 M 39.500000 11.600000 C 42.299999 11.600000 44.299999 9.500000 44.299999 6.900000 L 44.299999 6.900000 C 44.299999 4.300000 42.299999 2.300000 39.500000 2.300000 C 36.799999 2.300000 34.700001 4.400000 34.700001 7.000000 L 34.700001 7.000000 C 34.799999 9.500000 36.799999 11.600000 39.500000 11.600000 M 30.400000 11.600000 C 32.099998 11.600000 33.200001 10.900000 34.099998 9.900000 L 32.900002 8.700000 C 32.299999 9.400000 31.500000 9.800000 30.600000 9.800000 C 29.000000 9.800000 27.900000 8.500000 27.900000 6.900000 L 27.900000 6.900000 C 27.900000 5.300000 29.000000 4.100000 30.500000 4.100000 C 31.500000 4.100000 32.200001 4.600000 32.799999 5.200000 L 34.000000 3.800000 C 33.200001 2.900000 32.099998 2.300000 30.400000 2.300000 C 27.700001 2.300000 25.700001 4.400000 25.700001 7.000000 L 25.700001 7.000000 C 25.700001 9.500000 27.700001 11.600000 30.400000 11.600000 M 22.900000 11.600000 C 23.700001 11.600000 24.200001 11.400000 24.700001 11.100000 L 24.700001 9.400000 C 24.299999 9.600000 23.900000 9.700000 23.400000 9.700000 C 22.700001 9.700000 22.299999 9.400000 22.299999 8.600000 L 22.299999 4.200000 L 24.700001 4.200000 L 24.700001 2.500000 L 22.299999 2.500000 L 22.299999 0.000000 L 20.200001 0.000000 L 20.200001 2.500000 L 19.100000 2.500000 L 19.100000 4.300000 L 20.200001 4.300000 L 20.200001 9.000000 C 20.400000 10.900000 21.400000 11.600000 22.900000 11.600000 M 11.700000 6.300000 C 11.900000 4.900000 12.800000 4.000000 14.100000 4.000000 C 15.500000 4.000000 16.200001 5.000000 16.400000 6.400000 L 11.700000 6.400000 Z M 14.300000 11.600000 C 15.900000 11.600000 17.100000 10.900000 18.000000 9.900000 L 16.799999 8.800000 C 16.100000 9.500000 15.400000 9.900000 14.400000 9.900000 C 13.100000 9.900000 12.000000 9.100000 11.800000 7.600000 L 18.400000 7.600000 C 18.400000 7.400000 18.400000 7.200000 18.400000 7.000000 C 18.400000 4.400000 17.000000 2.200000 14.100000 2.200000 C 11.500000 2.200000 9.700000 4.300000 9.700000 6.900000 L 9.700000 6.900000 C 9.700000 9.700000 11.700000 11.600000 14.300000 11.600000 M 0.000000 11.400000 L 2.100000 11.400000 L 2.100000 6.400000 C 2.100000 5.000000 2.900000 4.200000 4.100000 4.200000 C 5.300000 4.100000 6.000000 4.900000 6.000000 6.300000 L 6.000000 11.400000 L 8.000000 11.400000 L 8.000000 5.700000 C 8.000000 3.600000 6.800000 2.300000 4.800000 2.300000 C 3.500000 2.300000 2.600000 3.000000 2.100000 3.800000 L 2.100000 2.500000 L 0.000000 2.500000 L 0.000000 11.400000 Z" fill="#0F2147"/><g/><g/><g/><g/><g/><g/></g></svg>